<?xml version="1.0" encoding="utf-8"?>
<!-- Generator: Adobe Illustrator 18.1.1, SVG Export Plug-In . SVG Version: 6.00 Build 0)  -->
<svg version="1.1" id="Layer_1" xmlns="http://www.w3.org/2000/svg" xmlns:xlink="http://www.w3.org/1999/xlink" x="0px" y="0px"
	 width="56px" height="72px" viewBox="0 0 56 72" enable-background="new 0 0 56 72" xml:space="preserve">
<symbol  id="Shield" viewBox="-55 -70.079 110 140.158">
	<path id="shield_7_" fill="#FFFFFF" d="M-40.68,46.981h-0.84v6.915c0.295,0.018,0.579,0.018,0.84,0.018
		c2.52,0,3.708-1.191,3.708-3.292C-36.972,48.452-38.023,46.981-40.68,46.981 M28.734,50.623c0,2.1-1.188,3.292-3.709,3.292
		c-0.262,0-0.541,0-0.84-0.018v-6.915h0.84C27.684,46.981,28.734,48.452,28.734,50.623 M13.01-48.214
		c-0.267,0.925-0.873,6.157-0.873,6.157h-0.374c0,0-0.606-5.231-0.873-6.157c-0.261-0.929-0.868-1.322-1.488-1.491
		c-0.933-0.257-6.159-0.874-6.159-0.874v-0.371c0,0,5.227-0.617,6.159-0.872c0.62-0.172,1.227-0.565,1.488-1.493
		c0.267-0.926,0.873-6.155,0.873-6.155h0.374c0,0,0.606,5.229,0.873,6.155c0.265,0.928,0.87,1.321,1.491,1.493
		c0.928,0.255,6.155,0.872,6.155,0.872v0.371c0,0-5.228,0.616-6.155,0.874C13.879-49.536,13.274-49.143,13.01-48.214 M55,67.064
		v-82.112c0-30.317-24.679-55.031-55-55.031c-30.849,0-55,24.714-55,55.031v82.112c7.16,0.884,30.123,3.015,55.002,3.015
		C24.328,70.079,47.613,68.08,55,67.064 M-47.299-21.004c6.03-3.84,14.424-5.735,21.457-5.735c10.655,0,17.07,3.17,24.096,6.675
		c9.657,4.817,17.672,9.898,30.256,9.834c7.616-0.04,14.348-2.034,19.183-4.605c-0.008,2.006-0.139,3.986-0.389,5.928
		C41.279-5.097,32.914-3.139,25.91-3.139c-10.655,0-17.054-3.258-24.085-6.75c-9.025-4.481-17.663-9.864-30.207-9.864
		c-7.638,0-14.42,2.047-19.273,4.647c0-0.017-0.003,0.027-0.003,0.011C-47.657-17.076-47.533-19.086-47.299-21.004 M-13.352,23.827
		c0.272,0.942,0.814,5.336,1.03,7.136c-3.833-1.023-7.475-2.512-10.862-4.406c0.19-1.597,0.442-3.671,0.705-5.652
		c1.746,0.204,6.255,0.745,7.215,1.009C-14.466,22.133-13.69,22.638-13.352,23.827 M-13.352,17.314
		c-0.338,1.188-1.114,1.693-1.912,1.912c-0.945,0.26-5.324,0.809-7.129,1.029c0.336-2.486,0.676-4.72,0.903-5.522
		c0.617-2.155,2.021-3.064,3.459-3.458c0.822-0.226,3.137-0.575,5.689-0.918C-12.572,12.255-13.089,16.401-13.352,17.314
		 M-47.283-9.115c5.229-2.081,11.223-3.121,16.179-3.121c2.344,0,4.573,0.206,6.697,0.555c-0.191,1.709-1.432,12.605-2.002,14.584
		c-0.607,2.148-2.016,3.062-3.449,3.455c-1.507,0.415-7.995,1.235-11.807,1.695C-44.56,2.851-46.51-2.948-47.283-9.115
		 M-29.858,11.274c1.434,0.394,2.842,1.303,3.449,3.458c0.398,1.379,1.12,7.013,1.587,10.872
		c-6.477-3.962-11.934-9.425-15.887-15.907C-36.854,10.169-31.245,10.893-29.858,11.274 M24.215-18.104
		c0.113-0.973,1.462-12.78,2.051-14.843c0.615-2.152,2.02-3.06,3.461-3.454c1.531-0.426,8.274-1.271,12.045-1.725
		c2.9,5.245,4.838,11.091,5.582,17.305c-5.254,2.115-11.297,3.215-16.257,3.215C28.586-17.606,26.314-17.785,24.215-18.104
		 M43.039,44.598c0-1.049-0.77-1.609-2.66-1.609c-1.679,0-4.268,0.559-5.806,1.331l0.559-3.851c1.539-0.562,3.636-0.842,5.318-0.842
		c4.268,0,7.768,1.401,7.768,5.603c0,5.601-8.048,4.552-8.048,7.211c0,0.91,0.909,1.333,2.378,1.333
		c1.609,0,3.361-0.351,4.549-0.844l-0.42,3.642c-1.33,0.281-2.52,0.491-4.689,0.491c-4.128,0-6.929-1.627-6.929-5.041
		C35.06,46.139,43.039,47.33,43.039,44.598 M0.02,32.58c-4.037,0-7.954-0.503-11.697-1.446c0.2-1.679,0.77-6.334,1.047-7.306
		c0.342-1.189,1.12-1.695,1.918-1.913c1.191-0.33,7.907-1.09,7.907-1.09v-0.476c0,0-6.716-0.793-7.907-1.123
		c-0.798-0.219-1.576-0.724-1.918-1.912c-0.264-0.927-0.794-5.199-1.015-7.05c3.971-0.528,8.236-1.017,8.236-1.017v-0.86
		c0,0-12.466-1.436-14.622-2.029c-1.438-0.393-2.843-1.307-3.459-3.455c-0.567-1.985-1.813-12.793-1.998-14.42
		C-14.71-9.919-7.197-5.365-1.56-2.641C6.455,1.23,13.796,4.401,23.811,4.401c8.706,0,16.389-2.79,22.021-6.257
		C40.093,18.034,21.758,32.58,0.02,32.58 M18.828,39.978h5.106v3.991h1.82c4.758,0,7.769,2.451,7.769,6.723
		c0,4.692-3.219,6.372-8.467,6.372c-2.03,0-4.481-0.139-6.227-0.352V39.978z M9.871,39.978h5.107v16.736H9.871V39.978z
		 M-1.956,39.978h9.238l0.769,3.361H3.152v13.374h-5.109V39.978z M-10.842,39.978h5.109v16.736h-5.109V39.978z M-30.155,39.978
		h5.109v6.582h5.316v-6.582h5.109v16.735h-5.109v-6.651h-5.316v6.651h-5.109V39.978z M-46.88,39.978h5.107v3.991h1.819
		c4.758,0,7.768,2.451,7.768,6.723c0,4.692-3.218,6.372-8.468,6.372c-2.028,0-4.476-0.139-6.227-0.352V39.978z M0.02-62.773
		c8.364,0,16.221,2.157,23.055,5.938c-0.447,3.771-1.288,10.532-1.729,12.062c-0.609,2.147-2.014,3.061-3.451,3.455
		C15.732-40.724,3.267-39.29,3.267-39.29v0.858c0,0,12.465,1.433,14.629,2.03c1.437,0.394,2.843,1.302,3.451,3.454
		c0.587,2.038,1.907,13.479,2.045,14.705c-8.547-1.582-14.408-5.525-21.754-9.28c-7.811-3.994-15.434-6.859-25.348-6.859
		c-8.744,0-16.522,2.843-22.162,6.331C-40.23-48.087-21.821-62.773,0.02-62.773 M40.861-39.706
		c-3.857-0.471-9.719-1.223-11.134-1.611c-1.441-0.394-2.845-1.308-3.461-3.455c-0.404-1.412-1.15-7.29-1.615-11.151
		C31.282-51.916,36.856-46.339,40.861-39.706"/>
</symbol>
<g id="XMLID_4_">
	
		<use xlink:href="#Shield"  width="110" height="140.158" id="XMLID_2_" x="-55" y="-70.079" transform="matrix(0.5086 0 0 -0.5137 27.9756 36)" overflow="visible"/>
</g>
</svg>
